<svg width="40" height="44" viewBox="0 0 40 44" fill="none" xmlns="http://www.w3.org/2000/svg">
<path d="M1.66667 16.8218C1.66667 15.1993 2.2225 12.7729 3.88583 10.7626C5.52667 8.77895 8.3175 7.11336 12.945 7.11336C15.3617 7.11336 16.9425 7.43695 18.1292 7.95395C19.3075 8.46728 20.1575 9.19878 21.0958 10.142L21.3108 10.3574C22.0483 11.0954 22.4458 11.4941 22.6567 12.1028C23.72 15.1736 25.6133 19.5855 26.84 22.3676C27.115 22.9919 26.6983 23.716 26.0783 23.716H24.2475V30.03C24.2475 30.2731 24.1597 30.5063 24.0034 30.6782C23.8471 30.8501 23.6352 30.9467 23.4142 30.9467H18.8767C18.8388 30.942 18.8006 30.9402 18.7625 30.9412C18.6192 30.9449 18.4808 30.9467 18.3475 30.9467H18.2417C16.3367 30.9412 15.4183 30.6185 14.0633 30.0841C13.9599 30.0411 13.8497 30.0212 13.7391 30.0255C13.6286 30.0298 13.52 30.0582 13.4196 30.1092C13.3191 30.1602 13.2289 30.2326 13.1542 30.3223C13.0795 30.412 13.0218 30.5172 12.9844 30.6317C12.947 30.7462 12.9307 30.8677 12.9365 30.9892C12.9422 31.1107 12.9699 31.2297 13.0179 31.3393C13.0659 31.4489 13.1332 31.5469 13.216 31.6276C13.2988 31.7083 13.3953 31.7701 13.5 31.8093C14.7892 32.318 15.795 32.6709 17.4542 32.7589V38.28H19.1208V32.78H23.415C24.078 32.78 24.7139 32.4903 25.1828 31.9746C25.6516 31.4588 25.915 30.7594 25.915 30.03V25.5494H26.0792C27.94 25.5494 29.1467 23.3989 28.34 21.5683C27.1117 18.7816 25.2483 14.4366 24.215 11.4501C23.8533 10.4051 23.1408 9.7002 22.4658 9.03286L22.2208 8.78811C21.225 7.78711 20.1983 6.8842 18.7442 6.24895C17.2975 5.6192 15.4892 5.28003 12.945 5.28003C7.92083 5.28003 4.65583 7.10786 2.65333 9.52786C0.673334 11.9204 0 14.8079 0 16.8218C0 22.0101 2.665 26.0471 4.1975 27.8649V38.28H5.86417V27.1251L5.62667 26.8584C4.27667 25.3376 1.66667 21.5875 1.66667 16.8218Z" fill="white"/>
<path d="M10.2723 10.2391C10.2267 10.1603 10.216 10.0801 10.24 9.99871C10.2641 9.91728 10.3177 9.85263 10.4008 9.80478L12.9646 8.32806C13.1189 8.23918 13.2834 8.21575 13.458 8.25776C13.6327 8.29977 13.7624 8.39396 13.8471 8.54033L15.2545 10.9723C15.3001 11.0511 15.3109 11.1312 15.2868 11.2126C15.2627 11.2941 15.2091 11.3587 15.126 11.4066L14.5563 11.7347C14.4732 11.7826 14.3903 11.7966 14.3075 11.7767C14.2248 11.7568 14.1606 11.7074 14.115 11.6286L13.4602 10.4971L12.4452 13.9527C13.7077 14.4115 14.6664 15.2066 15.3212 16.3381C16.0412 17.5822 16.2298 18.9166 15.8871 20.3412C15.5444 21.7659 14.7682 22.9166 13.5586 23.7935L14.2037 24.9081L15.0583 24.4159C15.1413 24.3681 15.2243 24.3541 15.307 24.374C15.3897 24.3939 15.4539 24.4432 15.4995 24.522L15.8123 25.0625C15.8579 25.1413 15.8686 25.2214 15.8445 25.3028C15.8204 25.3843 15.7669 25.4489 15.6838 25.4968L14.8292 25.989L15.2983 26.7997C15.3439 26.8785 15.3547 26.9586 15.3306 27.04C15.3065 27.1215 15.2529 27.1861 15.1698 27.234L14.6001 27.5621C14.517 27.61 14.4341 27.6239 14.3514 27.604C14.2686 27.5841 14.2044 27.5348 14.1588 27.456L13.6897 26.6453L12.8351 27.1376C12.752 27.1854 12.6691 27.1994 12.5864 27.1795C12.5036 27.1596 12.4395 27.1102 12.3939 27.0314L12.0811 26.491C12.0355 26.4122 12.0247 26.3321 12.0488 26.2506C12.0729 26.1692 12.1265 26.1046 12.2096 26.0567L13.0642 25.5645L12.4191 24.4498C11.4827 24.8691 10.5123 25.0415 9.5078 24.9671C8.5033 24.8926 7.58582 24.5823 6.75537 24.0361C5.92492 23.4898 5.29282 22.7599 4.85906 21.8463C4.28942 20.6432 4.18837 19.3747 4.55591 18.0409C4.92346 16.707 5.67214 15.6284 6.80196 14.805C7.45664 14.3228 8.16415 13.9866 8.92447 13.7964C9.6848 13.6061 10.4401 13.5576 11.1904 13.6509L12.2192 10.1986L11.0263 10.8856C10.9432 10.9335 10.8603 10.9475 10.7776 10.9276C10.6949 10.9077 10.6307 10.8583 10.5851 10.7795L10.2723 10.2391ZM12.3829 23.0746C13.4808 22.4422 14.2058 21.5311 14.5578 20.3413C14.9098 19.1515 14.7845 18.0359 14.1818 16.9945C13.5791 15.953 12.6733 15.2869 11.4645 14.9961C10.2556 14.7054 9.10228 14.8762 8.00436 15.5086C6.90644 16.141 6.18147 17.052 5.82947 18.2418C5.47746 19.4316 5.60281 20.5472 6.20551 21.5887C6.80822 22.6301 7.71398 23.2963 8.9228 23.587C10.1316 23.8778 11.285 23.707 12.3829 23.0746Z" fill="white"/>
</svg>
