<svg width="237" height="224" viewBox="0 0 237 224" fill="none" xmlns="http://www.w3.org/2000/svg">
<path d="M26.3333 223.5C19.0917 223.5 13.1526 223.859 8 219C2.84744 214.141 0.00877778 205.504 0 198.667V24.8333C0 18.0042 0.838666 11.3591 6 6.5C11.1613 1.64094 19.1004 0.00827778 26.3333 0H210.667C217.908 0 225.839 1.63267 231 6.5C236.161 11.3673 237.009 18.0124 237 24.8333V198.667C237 205.496 235.153 214.133 230 219C224.847 223.867 217.917 223.508 210.667 223.5H26.3333ZM39.5 173.833H197.5L148.125 111.75L108.625 161.417L79 124.167L39.5 173.833Z" fill="#C9D9EE"/>
<path d="M236.5 24.8327V24.8333V198.667C236.5 205.449 234.658 213.912 229.657 218.637C227.175 220.981 224.258 222.077 221.042 222.584C218.217 223.03 215.193 223.017 212.042 223.004C211.586 223.002 211.128 223.001 210.667 223H210.667H26.3333C25.8742 223 25.4214 223.001 24.9747 223.003C18.3161 223.022 13.01 223.037 8.34304 218.636C3.31543 213.895 0.50874 205.405 0.5 198.666V24.8333C0.5 18.0237 1.34376 11.5703 6.34273 6.86405C11.3666 2.13442 19.1491 0.508265 26.3336 0.5H210.667C217.86 0.5 225.633 2.12609 230.657 6.86376C235.656 11.5785 236.509 18.0327 236.5 24.8327ZM39.1087 173.522L38.4635 174.333H39.5H197.5H198.536L197.891 173.522L148.516 111.439L148.125 110.947L147.734 111.439L108.625 160.613L79.3913 123.855L79 123.363L78.6087 123.855L39.1087 173.522Z" stroke="black" stroke-opacity="0.3"/>
</svg>
